<svg width="19" height="13" viewBox="0 0 19 13" fill="none" xmlns="http://www.w3.org/2000/svg">
<g clip-path="url(#clip0_61385:198)">
<path d="M9.33217 0.775543C4.179 0.775543 0 3.40339 0 6.64508C0 9.23785 2.674 11.4375 6.384 12.2143C6.85067 12.2684 7.021 12.0871 7.021 11.9315C7.021 11.7919 7.01283 11.4229 7.00817 10.9332C4.41233 11.2877 3.864 10.1462 3.864 10.1462C3.4405 9.46804 2.828 9.28754 2.828 9.28754C1.97983 8.92362 2.891 8.93093 2.891 8.93093C3.82783 8.97258 4.32017 9.536 4.32017 9.536C5.15317 10.4327 6.50533 10.174 7.03733 10.0234C7.12133 9.64416 7.36283 9.38547 7.63 9.23858C5.558 9.09023 3.37867 8.58674 3.37867 6.33816C3.37867 5.69727 3.74267 5.17331 4.34 4.76262C4.24317 4.61427 3.9235 4.01724 4.431 3.20974C4.431 3.20974 5.215 3.05189 6.99767 3.81116C7.742 3.68108 8.54 3.61604 9.3345 3.61385C10.1267 3.61677 10.9258 3.68108 11.6713 3.81189C13.4528 3.05262 14.2357 3.21047 14.2357 3.21047C14.7443 4.0187 14.4247 4.615 14.329 4.76335C14.9275 5.17404 15.288 5.698 15.288 6.33889C15.288 8.59331 13.1063 9.0895 11.0273 9.23493C11.3622 9.41616 11.6608 9.77424 11.6608 10.3216C11.6608 11.1064 11.6492 11.7393 11.6492 11.9315C11.6492 12.0886 11.8172 12.2713 12.2908 12.2135C15.995 11.436 18.6667 9.23712 18.6667 6.64508C18.6667 3.40339 14.4877 0.775543 9.33217 0.775543Z" fill="#C4C4CC"/>
</g>
<defs>
<clipPath id="clip0_61385:198">
<rect width="18.6667" height="11.6923" fill="white" transform="translate(0 0.653839)"/>
</clipPath>
</defs>
</svg>
